# xmcd
#
# Track frame offsets: 
#        150
#        19644
#        38912
#        65933
#        98734
#        128889
#
# Disc length: 1978 seconds
#
# Revision: 0
# Processed by: cddbd v1.5.2PL0 Copyright (c) Steve Scherf et al.
# Submitted via: ExactAudioCopy v1.0b3
#
DISCID=4d07b806
DTITLE=Edward Ka-Spel - 11.11.11.11
DYEAR=2011
DGENRE=Psychedelic
TTITLE0=Poppy Day 11.11.11.11
TTITLE1=The Hiroshima Bell
TTITLE2=Professional 11.11.11.11
TTITLE3=Voiceover
TTITLE4=Friendly Fire 11.11.11.11
TTITLE5=11-11-11.
EXTD=
EXTT0=
EXTT1=
EXTT2=
EXTT3=
EXTT4=
EXTT5=
PLAYORDER=
